<svg xmlns="http://www.w3.org/2000/svg" viewBox="0 0 98378 98418" style="width: 100vw; height 100vh">
  <path d="M98346 50117 L98346 51321 L97590 51321 L97590 52570 L98378 52570 L98378 53784 L98153 53784 L98153 54933 L97379 54933 L97379 56194 L97715 56194 L97715 57357 L97262 57357 L97262 58502 L96789 58502 L96789 59844 L97322 59844 L97322 60862 L96301 60862 L96301 62158 L96496 62158 L96496 63353 L96245 63353 L96245 64573 L96059 64573 L96059 65697 L95564 65697 L95564 66656 L94642 66656 L94642 68048 L94866 68048 L94866 69061 L94123 69061 L94123 70153 L93582 70153 L93582 71391 L93344 71391 L93344 72190 L92231 72190 L92231 73500 L92100 73500 L92100 74339 L91119 74339 L91119 75394 L90523 75394 L90523 76365 L89795 76365 L89795 77786 L89716 77786 L89716 78751 L88956 78751 L88956 79523 L87950 79523 L87950 80419 L87122 80419 L87122 81374 L86368 81374 L86368 82436 L85727 82436 L85727 83340 L84904 83340 L84904 84297 L84131 84297 L84131 84951 L83062 84951 L83062 85736 L82129 85736 L82129 86195 L80920 86195 L80920 87238 L80214 87238 L80214 87725 L79055 87725 L79055 88764 L78320 88764 L78320 89657 L77460 89657 L77460 89956 L76194 89956 L76194 91070 L75461 91070 L75461 91758 L74445 91758 L74445 92101 L73235 92101 L73235 92261 L71945 92261 L71945 93283 L71101 93283 L71101 93988 L70082 93988 L70082 94522 L68978 94522 L68978 94976 L67839 94976 L67839 95058 L66563 95058 L66563 95021 L65267 95021 L65267 95501 L64155 95501 L64155 96035 L63051 96035 L63051 96082 L61812 96082 L61812 96820 L60745 96820 L60745 97209 L59582 97209 L59582 96899 L58288 96899 L58288 97446 L57151 97446 L57151 97443 L55925 97443 L55925 97781 L54742 97781 L54742 97847 L53527 97847 L53527 97964 L52316 97964 L52316 97780 L51095 97780 L51095 98318 L49883 98318 L49883 97566 L48679 97566 L48679 97545 L47473 97545 L47473 97451 L46270 97451 L46270 98168 L44983 98168 L44983 97283 L43861 97283 L43861 97748 L42566 97748 L42566 97553 L41358 97553 L41358 96726 L40279 96726 L40279 96793 L39022 96793 L39022 96846 L37749 96846 L37749 96565 L36553 96565 L36553 95546 L35588 95546 L35588 95771 L34230 95771 L34230 95439 L33045 95439 L33045 94564 L32073 94564 L32073 94197 L30906 94197 L30906 93871 L29713 93871 L29713 92803 L28875 92803 L28875 92611 L27610 92611 L27610 92347 L26361 92347 L26361 90998 L25731 90998 L25731 90775 L24447 90775 L24447 89904 L23562 89904 L23562 88985 L22725 88985 L22725 88768 L21386 88768 L21386 87803 L20591 87803 L20591 86828 L19821 86828 L19821 86644 L18387 86644 L18387 85516 L17755 85516 L17755 84696 L16858 84696 L16858 84108 L15726 84108 L15726 82980 L15135 82980 L15135 81765 L14668 81765 L14668 80912 L13814 80912 L13814 80362 L12579 80362 L12579 79279 L11983 79279 L11983 78255 L11324 78255 L11324 77249 L10646 77249 L10646 76260 L9943 76260 L9943 75253 L9265 75253 L9265 74137 L8769 74137 L8769 73091 L8159 73091 L8159 72007 L7619 72007 L7619 70921 L7086 70921 L7086 69804 L6620 69804 L6620 68965 L5508 68965 L5508 67845 L5008 67845 L5008 66451 L5247 66451 L5247 65435 L4483 65435 L4483 64370 L3807 64370 L3807 62988 L4187 62988 L4187 61973 L3289 61973 L3289 60792 L2976 60792 L2976 59480 L3292 59480 L3292 58342 L2797 58342 L2797 57109 L2829 57109 L2829 55995 L1994 55995 L1994 54760 L2034 54760 L2034 53543 L1929 53543 L1929 52296 L2446 52296 L2446 51110 L1556 51110 L1556 50108 L94697 50108 L94697 48668 L2048 48668 L2048 47447 L1975 47447 L1975 46221 L1919 46221 L1919 45042 L2390 45042 L2390 43799 L2240 43799 L2240 42668 L2906 42668 L2906 41385 L2599 41385 L2599 40229 L3033 40229 L3033 39000 L3116 39000 L3116 37837 L3488 37837 L3488 36745 L4099 36745 L4099 35590 L4459 35590 L4459 34522 L5075 34522 L5075 33098 L4701 33098 L4701 32139 L5600 32139 L5600 31152 L6372 31152 L6372 30021 L6793 30021 L6793 28669 L6780 28669 L6780 27498 L7176 27498 L7176 26736 L8325 26736 L8325 25614 L8804 25614 L8804 24425 L9189 24425 L9189 23412 L9869 23412 L9869 22361 L10494 22361 L10494 21371 L11210 21371 L11210 20320 L11848 20320 L11848 19835 L13189 19835 L13189 18548 L13542 18548 L13542 18030 L14786 18030 L14786 16513 L14942 16513 L14942 16156 L16320 16156 L16320 15426 L17294 15426 L17294 14589 L18162 14589 L18162 13554 L18865 13554 L18865 12508 L19580 12508 L19580 11712 L20511 11712 L20511 11495 L21868 11495 L21868 10721 L22802 10721 L22802 9580 L23501 9580 L23501 9343 L24795 9343 L24795 8400 L25647 8400 L25647 7597 L26598 7597 L26598 7290 L27821 7290 L27821 6954 L29014 6954 L29014 6287 L30043 6287 L30043 6019 L31252 6019 L31252 5325 L32280 5325 L32280 5104 L33495 5104 L33495 4777 L34664 4777 L34664 4504 L35846 4504 L35846 3826 L36908 3826 L36908 3702 L38132 3702 L38132 3406 L39306 3406 L39306 3383 L40537 3383 L40537 2845 L41666 2845 L41666 2992 L42915 2992 L42915 2459 L44062 2459 L44062 1987 L45234 1987 L45234 2539 L46501 2539 L46501 2138 L47688 2138 L47688 2150 L48903 2150 L48903 1538 L50117 1538 L50117 2006 L51332 2006 L51332 2553 L52521 2553 L52521 2295 L53748 2295 L53748 2232 L54974 2232 L54974 2289 L56193 2289 L56193 2272 L57429 2272 L57429 2341 L58660 2341 L58660 3021 L59772 3021 L59772 3447 L60921 3447 L60921 3629 L62126 3629 L62126 3932 L63302 3932 L63302 4676 L64340 4676 L64340 4457 L65690 4457 L65690 4946 L66809 4946 L66809 5755 L67797 5755 L67797 5513 L69218 5513 L69218 6439 L70142 6439 L70142 7122 L71161 7122 L71161 7836 L72154 7836 L72154 7981 L73455 7981 L73455 8711 L74439 8711 L74439 8936 L75733 8936 L75733 10147 L76403 10147 L76403 10678 L77509 10678 L77509 11358 L78519 11358 L78519 12124 L79464 12124 L79464 12881 L80415 12881 L80415 13723 L81295 13723 L81295 14502 L82227 14502 L82227 15128 L83308 15128 L83308 16376 L83787 16376 L83787 17042 L84839 17042 L84839 17766 L85851 17766 L85851 18843 L86471 18843 L86471 19620 L87442 19620 L87442 20888 L87797 20888 L87797 21624 L88839 21624 L88839 22535 L89663 22535 L89663 23943 L89744 23943 L89744 24843 L90578 24843 L90578 25629 L91630 25629 L91630 26746 L92135 26746 L92135 27723 L92898 27723 L92898 28916 L93246 28916 L93246 30250 L93259 30250 L93259 31171 L94169 31171 L94169 32171 L94949 32171 L94949 33395 L95168 33395 L95168 34439 L95886 34439 L95886 35658 L96099 35658 L96099 36857 L96354 36857 L96354 38119 L96346 38119 L96346 39276 L96726 39276 L96726 40399 L97295 40399 L97295 41680 L97073 41680 L97073 42904 L97079 42904 L97079 44093 L97286 44093 L97286 45275 L97608 45275 L97608 46441 L98277 46441 L98277 47695 L97720 47695 L97720 48909 L97577 48909 L97577 50117 Z" stroke="black" stroke-width="100" fill="none" />
  <rect
			x="5247"
			y="50108"
			width="89450"
			height="16343"
			style="stroke:red; stroke-width:50; fill:#0c0; opacity: 25%;"
		/>
<rect
			x="5075"
			y="33098"
			width="89622"
			height="15570"
			style="stroke:red; stroke-width:50; fill:#0c0; opacity: 25%;"
		/>
</svg>